<svg width="40" height="40" fill="none" xmlns="http://www.w3.org/2000/svg"><path d="M36.94 39.061a1.501 1.501 0 0 0 2.121-2.122l-2.121 2.122ZM32 16.999h1.5H32ZM16.999 1.998v-1.5 1.5ZM6.392 6.392 5.331 5.331l1.061 1.061ZM1.999 16.999h-1.5 1.5Zm15 15.001v1.5V32Zm22.062 4.939L28.667 26.545l-2.121 2.122L36.94 39.061l2.121-2.122Zm-10.394-8.272A16.505 16.505 0 0 0 33.5 16.999h-3c0 3.581-1.423 7.014-3.954 9.546l2.121 2.122ZM33.5 16.999c0-4.376-1.739-8.573-4.833-11.668l-2.121 2.122a13.503 13.503 0 0 1 3.954 9.546h3ZM28.667 5.331A16.505 16.505 0 0 0 16.999.498v3c3.581 0 7.015 1.423 9.547 3.955l2.121-2.122ZM16.999.498A16.505 16.505 0 0 0 5.331 5.331l2.122 2.122a13.501 13.501 0 0 1 9.546-3.955v-3ZM5.331 5.331A16.504 16.504 0 0 0 .499 16.999h3c0-3.581 1.422-7.014 3.954-9.546L5.331 5.331ZM.499 16.999c0 4.376 1.738 8.573 4.832 11.668l2.122-2.122a13.498 13.498 0 0 1-3.954-9.546h-3Zm4.832 11.668A16.505 16.505 0 0 0 16.999 33.5v-3c-3.58 0-7.014-1.423-9.546-3.955l-2.122 2.122ZM16.999 33.5c4.376 0 8.573-1.739 11.668-4.833l-2.121-2.122a13.502 13.502 0 0 1-9.547 3.955v3Z" fill="#000"/></svg>
