<svg width="34" height="18" viewBox="0 0 34 18" fill="none" xmlns="http://www.w3.org/2000/svg" xmlns:xlink="http://www.w3.org/1999/xlink">
<path d="M32.061,1.561C32.646,0.975 32.646,0.025 32.061,-0.561C31.475,-1.146 30.525,-1.146 29.939,-0.561L32.061,1.561ZM16,15.5L14.939,16.561C15.525,17.146 16.475,17.146 17.061,16.561L16,15.5ZM2.061,-0.561C1.475,-1.146 0.525,-1.146 -0.061,-0.561C-0.646,0.025 -0.646,0.975 -0.061,1.561L2.061,-0.561ZM29.939,-0.561L14.939,14.439L17.061,16.561L32.061,1.561L29.939,-0.561ZM17.061,14.439L2.061,-0.561L-0.061,1.561L14.939,16.561L17.061,14.439Z" fill="#000000"/>
</svg>
