<svg width="40" height="40" viewBox="0 0 40 40" fill="none" xmlns="http://www.w3.org/2000/svg" xmlns:xlink="http://www.w3.org/1999/xlink">
<path d="M36.94,39.061C37.525,39.646 38.475,39.646 39.061,39.061C39.647,38.475 39.647,37.525 39.061,36.939L36.94,39.061ZM32,16.999L33.5,16.999L32,16.999ZM16.999,1.998L16.999,0.498L16.999,1.998ZM6.392,6.392L5.331,5.331L5.331,5.331L6.392,6.392ZM1.999,16.999L0.499,16.999L1.999,16.999ZM16.999,32L16.999,33.5L16.999,32ZM39.061,36.939L28.667,26.545L26.546,28.667L36.94,39.061L39.061,36.939ZM28.667,28.667C31.761,25.572 33.5,21.375 33.5,16.999L30.5,16.999C30.5,20.58 29.077,24.013 26.546,26.545L28.667,28.667ZM33.5,16.999C33.5,12.623 31.761,8.426 28.667,5.331L26.546,7.453C29.077,9.985 30.5,13.418 30.5,16.999L33.5,16.999ZM28.667,5.331C25.572,2.237 21.375,0.498 16.999,0.498L16.999,3.498C20.58,3.498 24.014,4.921 26.546,7.453L28.667,5.331ZM16.999,0.498C12.623,0.498 8.426,2.237 5.331,5.331L7.453,7.453C9.985,4.921 13.419,3.498 16.999,3.498L16.999,0.498ZM5.331,5.331C2.237,8.426 0.499,12.623 0.499,16.999L3.499,16.999C3.499,13.418 4.921,9.985 7.453,7.453L5.331,5.331ZM0.499,16.999C0.499,21.375 2.237,25.572 5.331,28.667L7.453,26.545C4.921,24.013 3.499,20.58 3.499,16.999L0.499,16.999ZM5.331,28.667C8.426,31.761 12.623,33.5 16.999,33.5L16.999,30.5C13.419,30.5 9.985,29.077 7.453,26.545L5.331,28.667ZM16.999,33.5C21.375,33.5 25.572,31.761 28.667,28.667L26.546,26.545C24.014,29.077 20.58,30.5 16.999,30.5L16.999,33.5Z" fill="#000000"/>
</svg>
